#!OML:ASF F:\VICON\USERDATA\INSTALL\rory3\rory3.ASF
:FULLY-SPECIFIED
:DEGREES
179
root 4.77737 17.9116 2.67571 -1.688 -48.3627 0.12451
lowerback 10.3453 2.17861 2.09692
upperback 0.772341 3.14518 0.473737
thorax -4.90472 1.50425 -1.13438
lowerneck -18.4616 -7.86531 -13.0756
upperneck 28.636 -11.1083 11.2153
head 14.3438 -4.91841 4.69538
rclavicle 6.88292e-014 1.59028e-015
rhumerus -29.3673 -14.6893 -81.3243
rradius 32.8165
rwrist 4.9441
rhand -15.5361 8.72699
rfingers 7.12502
rthumb 10.6477 -20.9832
lclavicle 6.88292e-014 1.59028e-015
lhumerus -38.1884 6.17871 82.051
lradius 33.3663
lwrist -6.25679
lhand -17.2827 26.2885
lfingers 7.12502
lthumb 8.96257 56.0782
rfemur -1.1874 -4.23491 31.0193
rtibia 22.1971
rfoot -14.4208 -0.721719
rtoes 12.9464
lfemur -18.8032 -2.53434 -13.9835
ltibia 54.4037
lfoot -3.74218 -3.83263
ltoes -16.4956
180
root 4.69045 17.8965 2.7592 -1.55345 -48.8133 -0.0194657
lowerback 10.3396 2.22006 2.22363
upperback 0.752445 3.21596 0.490582
thorax -4.91422 1.5363 -1.1979
lowerneck -18.4379 -7.86617 -13.0847
upperneck 28.6064 -11.0918 11.1718
head 14.32 -4.9189 4.68115
rclavicle 3.8266e-015 7.55382e-015
rhumerus -29.1278 -14.317 -81.4657
rradius 33.2533
rwrist 4.66387
rhand -15.5429 8.66747
rfingers 7.12502
rthumb 10.6411 -21.0431
lclavicle 3.8266e-015 7.55382e-015
lhumerus -38.2543 6.44347 82.1027
lradius 33.0506
lwrist -6.5839
lhand -17.0002 26.2759
lfingers 7.12502
lthumb 9.23514 56.0536
rfemur -0.728602 -3.99094 31.1344
rtibia 22.1849
rfoot -14.7174 -0.846766
rtoes 12.9558
lfemur -19.3217 -2.87064 -13.9319
ltibia 53.0744
lfoot -4.30512 -3.27593
ltoes -17.5237
181
root 4.60252 17.883 2.84423 -1.48659 -49.1804 -0.0440159
lowerback 10.3269 2.24 2.3242
upperback 0.705933 3.25303 0.450376
thorax -4.94661 1.55135 -1.30182
lowerneck -18.3809 -7.87786 -13.101
upperneck 28.6175 -11.1498 11.2648
head 14.3304 -4.93776 4.71271
rclavicle -2.20154e-014 -2.78299e-015
rhumerus -28.9599 -13.9808 -81.6392
rradius 33.6987
rwrist 4.44366
rhand -15.6182 8.63337
rfingers 7.12502
rthumb 10.5684 -21.0809
lclavicle -2.20154e-014 -2.78299e-015
lhumerus -38.346 6.69083 82.0929
lradius 32.6804
lwrist -7.11955
lhand -16.7623 26.3951
lfingers 7.12502
lthumb 9.46471 56.1625
rfemur -0.220789 -3.88966 31.1283
rtibia 22.0138
rfoot -15.0327 -0.734834
rtoes 14.1034
lfemur -19.776 -3.33294 -13.9688
ltibia 51.5568
lfoot -4.84686 -2.70081
ltoes -18.5047
182
root 4.51402 17.874 2.92831 -1.39047 -49.5713 -0.0723973
lowerback 10.3326 2.25377 2.39346
upperback 0.646377 3.27907 0.40737
thorax -5.0049 1.56103 -1.39089
lowerneck -18.3482 -7.91448 -13.0771
upperneck 28.6428 -11.2586 11.3577
head 14.358 -4.97346 4.72696
rclavicle -1.61761e-014 2.38542e-015
rhumerus -28.7853 -13.4956 -81.8815
rradius 34.1453
rwrist 4.26322
rhand -15.8051 8.6396
rfingers 7.12502
rthumb 10.3882 -21.0838
lclavicle -1.61761e-014 2.38542e-015
lhumerus -38.4517 6.89374 82.0395
lradius 32.4205
lwrist -7.58532
lhand -16.7311 26.1609
lfingers 7.12502
lthumb 9.49484 55.927
rfemur 0.319126 -3.84128 31.093
rtibia 21.7419
rfoot -15.3561 -0.446646
rtoes 15.952
lfemur -20.1771 -3.82144 -13.9556
ltibia 49.8792
lfoot -5.16638 -2.14393
ltoes -16.9843
183
root 4.42373 17.8755 3.00683 -1.27988 -50.039 -0.15228
lowerback 10.3883 2.32024 2.42078
upperback 0.60064 3.37453 0.429933
thorax -5.08018 1.60602 -1.4001
lowerneck -18.3049 -7.98553 -13.1758
upperneck 28.6048 -11.3539 11.4115
head 14.3594 -5.02072 4.74618
rclavicle -4.16951e-014 9.14409e-015
rhumerus -28.584 -13.0487 -82.0166
rradius 34.5231
rwrist 4.12188
rhand -15.8687 8.58557
rfingers 7.12502
rthumb 10.3269 -21.1409
lclavicle -4.16951e-014 9.14409e-015
lhumerus -38.534 6.96119 82.1462
lradius 32.2267
lwrist -7.71207
lhand -16.615 25.9591
lfingers 7.12502
lthumb 9.60685 55.7201
rfemur 0.902994 -3.40158 31.1466
rtibia 21.4713
rfoot -15.6836 -0.500229
rtoes 17.0354
lfemur -20.5056 -4.27118 -13.8696
ltibia 48.0474
lfoot -5.47288 -1.72221
ltoes -13.6264
184
root 4.33246 17.8716 3.08743 -1.16368 -50.5148 -0.161697
lowerback 10.2981 2.39586 2.43091
upperback 0.598908 3.47365 0.42997
thorax -5.02716 1.6557 -1.41517
lowerneck -18.3749 -8.05525 -13.2199
upperneck 28.5068 -11.4005 11.3587
head 14.3385 -5.04832 4.71621
rclavicle -4.12727e-014 -6.75868e-015
rhumerus -28.3184 -12.8942 -82.0991
rradius 34.8653
rwrist 4.12596
rhand -15.9232 8.49705
rfingers 7.12502
rthumb 10.2742 -21.232
lclavicle -4.12727e-014 -6.75868e-015
lhumerus -38.4818 7.05619 82.2564
lradius 31.9118
lwrist -7.93291
lhand -16.4708 26.211
lfingers 7.12502
lthumb 9.74591 55.9655
rfemur 1.4054 -3.06254 31.1485
rtibia 21.2052
rfoot -15.89 -0.54524
rtoes 17.2141
lfemur -20.8479 -4.77763 -13.8343
ltibia 46.1046
lfoot -5.79512 -1.34956
ltoes -11.8141
185
root 4.24021 17.8576 3.17097 -0.969727 -50.9513 -0.21488
lowerback 10.1248 2.4716 2.47888
upperback 0.608878 3.57409 0.420365
thorax -4.91237 1.70646 -1.4566
lowerneck -18.4849 -8.11531 -13.133
upperneck 28.4379 -11.4578 11.2543
head 14.3265 -5.07109 4.64032
rclavicle 6.11263e-014 4.77083e-015
rhumerus -28.0444 -12.7075 -82.1853
rradius 35.2084
rwrist 3.92399
rhand -15.9262 8.66062
rfingers 7.12502
rthumb 10.2713 -21.0686
lclavicle 6.11263e-014 4.77083e-015
lhumerus -38.365 7.13053 82.3447
lradius 31.5542
lwrist -8.09242
lhand -16.3766 26.2146
lfingers 7.12502
lthumb 9.83684 55.9648
rfemur 1.88058 -2.85391 31.1605
rtibia 20.8809
rfoot -15.9695 -0.463605
rtoes 17.6737
lfemur -21.1651 -5.09384 -13.8229
ltibia 44.0683
lfoot -6.05371 -1.07053
ltoes -13.8294
